<?xml version="1.0" encoding="UTF-8" standalone="no"?>
<svg
   width="1687.463"
   height="197"
   version="1.1"
   id="svg4"
   xmlns="http://www.w3.org/2000/svg"
   xmlns:svg="http://www.w3.org/2000/svg">
  <defs
     id="defs1" />
  <g
     id="g54"
     transform="translate(-1198.0098,-1157.8956)">
    <path
       fill="#211a29"
       d="m 2592.3923,1208.1006 -305.8784,-50.205 -138.835,50.205 -71.669,-25.103 -322,-25.102 -157.475,50.205 -95.807,-25.103 -51.328,16.761 -205.686,-41.863 -45.704,17.701 v 142.299 h 1394.3824 z"
       id="path7"
       style="fill-rule:evenodd" />
    <path
       fill="#1a1823"
       d="m 2335.2919,1200.4716 51.328,27.76 80.6,-5.426 z m -253.282,-41.576 157.475,83.151 80.929,-26.0621 z m -532.504,0 138.835,83.151 49.321,-28.526 z"
       id="path8"
       style="fill-rule:evenodd" />
    <path
       style="fill:#1a1823;fill-opacity:1;stroke-width:4.39937"
       d="m 2592.3066,1158.8945 225.9671,41.1159 -20.0046,65.2362 z"
       id="path63" />
    <path
       id="path18"
       style="fill:#211a29;fill-opacity:1;fill-rule:evenodd"
       d="m 2885.4728,1175.5966 -224.6388,81.6124 164.2441,97.6875 60.3946,-1.5352 z" />
    <path
       id="path17"
       style="fill:#2f2439;fill-opacity:1;fill-rule:evenodd;stroke-width:4.39937"
       d="m 1549.5059,1158.8945 -351.4961,83.1524 v 181.8476 c 562.4874,-0.088 1124.976,0.018 1687.4629,0 v -181.8476 l -293.1661,-83.1524 -205.6855,69.336 -51.3281,-27.7598 -95.8086,41.5762 -157.4746,-83.1524 -322,41.5762 -71.668,41.5762 z" />
    <path
       id="use1-7"
       d="m 1198.0099,1157.8956 h 1440 v 197 h -1440 z"
       style="fill:none;fill-rule:evenodd" />
    <path
       fill="#211a29"
       d="m 2592.3923,1208.1006 -305.8784,-50.205 -138.835,50.205 -71.669,-25.103 -322,-25.102 -157.475,50.205 -95.807,-25.103 -51.328,16.761 -205.686,-41.863 -45.704,17.701 v 142.299 h 1394.3824 z"
       id="path31"
       style="fill-rule:evenodd" />
    <path
       fill="#1a1823"
       d="m 2335.2919,1200.4716 51.328,27.76 80.6,-5.426 z m -253.282,-41.576 157.475,83.151 80.929,-26.0621 z m -532.504,0 138.835,83.151 49.321,-28.526 z"
       id="path32"
       style="fill-rule:evenodd" />
    <path
       id="path33"
       style="fill:#211a29;fill-opacity:1;fill-rule:evenodd"
       d="m 2885.4728,1175.5966 -224.6388,81.6124 164.2441,97.6875 60.3946,-1.5352 z" />
    <path
       id="path34"
       style="fill:#2f2439;fill-opacity:1;fill-rule:evenodd;stroke-width:4.39937"
       d="m 1549.5059,1158.8945 -351.4961,83.1524 v 181.8476 c 562.4874,-0.088 1124.976,0.018 1687.4629,0 v -181.8476 l -293.1661,-83.1524 -205.6855,69.336 -51.3281,-27.7598 -95.8086,41.5762 -157.4746,-83.1524 -322,41.5762 -71.668,41.5762 z" />
    <path
       id="path35"
       d="m 1198.0099,1157.8956 h 1440 v 197 h -1440 z"
       style="fill:none;fill-rule:evenodd" />
    <path
       fill="#211a29"
       d="m 2592.3923,1208.1006 -305.8784,-50.205 -138.835,50.205 -71.669,-25.103 -322,-25.102 -157.475,50.205 -95.807,-25.103 -51.328,16.761 -205.686,-41.863 -45.704,17.701 v 142.299 h 1394.3824 z"
       id="path64"
       style="fill-rule:evenodd" />
    <path
       fill="#1a1823"
       d="m 2335.2919,1200.4716 51.328,27.76 80.6,-5.426 z m -253.282,-41.576 157.475,83.151 80.929,-26.0621 z m -532.504,0 138.835,83.151 49.321,-28.526 z"
       id="path65"
       style="fill-rule:evenodd" />
    <path
       style="fill:#1a1823;fill-opacity:1;stroke-width:4.39937"
       d="m 2592.3066,1158.8945 225.9671,41.1159 -20.0046,65.2362 z"
       id="path66" />
    <path
       id="path67"
       style="fill:#211a29;fill-opacity:1;fill-rule:evenodd"
       d="m 2885.4728,1175.5966 -224.6388,81.6124 164.2441,97.6875 60.3946,-1.5352 z" />
    <path
       id="path68"
       style="fill:#2f2439;fill-opacity:1;fill-rule:evenodd;stroke-width:4.39937"
       d="m 1549.5059,1158.8945 -351.4961,83.1524 v 181.8476 c 562.4874,-0.088 1124.976,0.018 1687.4629,0 v -181.8476 l -293.1661,-83.1524 -205.6855,69.336 -51.3281,-27.7598 -95.8086,41.5762 -157.4746,-83.1524 -322,41.5762 -71.668,41.5762 z" />
    <path
       id="path69"
       d="m 1198.0099,1157.8956 h 1440 v 197 h -1440 z"
       style="fill:none;fill-rule:evenodd" />
    <path
       fill="#211a29"
       d="m 2592.3923,1208.1006 -305.8784,-50.205 -138.835,50.205 -71.669,-25.103 -322,-25.102 -157.475,50.205 -95.807,-25.103 -51.328,16.761 -205.686,-41.863 -45.704,17.701 v 142.299 h 1394.3824 z"
       id="path70"
       style="fill-rule:evenodd" />
    <path
       fill="#1a1823"
       d="m 2335.2919,1200.4716 51.328,27.76 80.6,-5.426 z m -253.282,-41.576 157.475,83.151 80.929,-26.0621 z m -532.504,0 138.835,83.151 49.321,-28.526 z"
       id="path71"
       style="fill-rule:evenodd" />
    <path
       id="path72"
       style="fill:#211a29;fill-opacity:1;fill-rule:evenodd"
       d="m 2885.4728,1175.5966 -224.6388,81.6124 164.2441,97.6875 60.3946,-1.5352 z" />
    <path
       id="path73"
       style="fill:#2f2439;fill-opacity:1;fill-rule:evenodd;stroke-width:4.39937"
       d="m 1549.5059,1158.8945 -351.4961,83.1524 v 181.8476 c 562.4874,-0.088 1124.976,0.018 1687.4629,0 v -181.8476 l -293.1661,-83.1524 -205.6855,69.336 -51.3281,-27.7598 -95.8086,41.5762 -157.4746,-83.1524 -322,41.5762 -71.668,41.5762 z" />
    <path
       id="path74"
       d="m 1198.0099,1157.8956 h 1440 v 197 h -1440 z"
       style="fill:none;fill-rule:evenodd" />
  </g>
</svg>
