<?xml version="1.0" encoding="UTF-8" standalone="no"?>
<svg
   width="183"
   height="99"
   version="1.1"
   id="svg2"
   xmlns:xlink="http://www.w3.org/1999/xlink"
   xmlns="http://www.w3.org/2000/svg"
   xmlns:svg="http://www.w3.org/2000/svg">
  <defs
     id="defs1">
    <filter
       id="a"
       width="1.0463082"
       height="1.1100561"
       x="-0.023154093"
       y="-0.038843332"
       filterUnits="objectBoundingBox">
      <feOffset
         dy="3"
         in="SourceAlpha"
         result="shadowOffsetOuter1"
         id="feOffset1" />
      <feGaussianBlur
         in="shadowOffsetOuter1"
         result="shadowBlurOuter1"
         stdDeviation="1.5"
         id="feGaussianBlur1" />
      <feColorMatrix
         in="shadowBlurOuter1"
         values="0 0 0 0 0 0 0 0 0 0 0 0 0 0 0 0 0 0 0.196705638 0"
         id="feColorMatrix1" />
    </filter>
    <path
       id="b"
       d="m 39.28,56 a 0.463,0.463 0 0 0 0.34,-0.14 0.463,0.463 0 0 0 0.14,-0.34 V 44.6 c 0,-0.133 0.067,-0.2 0.2,-0.2 h 2.52 c 0.08,0 0.147,0.053 0.2,0.16 l 4.04,11.04 c 0.08,0.267 0.267,0.4 0.56,0.4 h 4.88 c 0.293,0 0.44,-0.12 0.44,-0.36 a 0.445,0.445 0 0 0 -0.04,-0.2 L 48,43.96 c -0.053,-0.133 -0.013,-0.227 0.12,-0.28 1.36,-0.613 2.413,-1.547 3.16,-2.8 0.747,-1.253 1.12,-2.733 1.12,-4.44 0,-1.653 -0.333,-3.12 -1,-4.4 A 7.203,7.203 0 0 0 48.56,29.06 C 47.333,28.353 45.933,28 44.36,28 H 34.6 a 0.463,0.463 0 0 0 -0.34,0.14 0.463,0.463 0 0 0 -0.14,0.34 v 27.04 c 0,0.133 0.047,0.247 0.14,0.34 0.093,0.093 0.207,0.14 0.34,0.14 z m 4.16,-15.92 h -3.48 c -0.133,0 -0.2,-0.067 -0.2,-0.2 v -6.84 c 0,-0.133 0.067,-0.2 0.2,-0.2 h 3.48 c 0.987,0 1.787,0.327 2.4,0.98 0.613,0.653 0.92,1.54 0.92,2.66 0,1.093 -0.307,1.967 -0.92,2.62 -0.613,0.653 -1.413,0.98 -2.4,0.98 z m 21.2,16.28 c 1.84,0 3.467,-0.373 4.88,-1.12 1.413,-0.747 2.507,-1.8 3.28,-3.16 0.773,-1.36 1.16,-2.947 1.16,-4.76 V 36.68 c 0,-1.787 -0.387,-3.36 -1.16,-4.72 -0.773,-1.36 -1.867,-2.413 -3.28,-3.16 -1.413,-0.747 -3.04,-1.12 -4.88,-1.12 -1.84,0 -3.46,0.373 -4.86,1.12 a 8.003,8.003 0 0 0 -3.26,3.16 c -0.773,1.36 -1.16,2.933 -1.16,4.72 v 10.64 c 0,1.813 0.387,3.4 1.16,4.76 a 8.003,8.003 0 0 0 3.26,3.16 c 1.4,0.747 3.02,1.12 4.86,1.12 z m 0,-4.84 c -1.093,0 -1.973,-0.367 -2.64,-1.1 -0.667,-0.733 -1,-1.687 -1,-2.86 V 36.52 c 0,-1.2 0.333,-2.167 1,-2.9 0.667,-0.733 1.547,-1.1 2.64,-1.1 1.12,0 2.013,0.367 2.68,1.1 0.667,0.733 1,1.7 1,2.9 v 11.04 c 0,1.173 -0.333,2.127 -1,2.86 -0.667,0.733 -1.56,1.1 -2.68,1.1 z m 21.76,4.8 c 1.813,0 3.413,-0.353 4.8,-1.06 1.387,-0.707 2.46,-1.713 3.22,-3.02 0.76,-1.307 1.14,-2.813 1.14,-4.52 V 47.6 a 0.463,0.463 0 0 0 -0.14,-0.34 0.463,0.463 0 0 0 -0.34,-0.14 l -4.68,-0.2 c -0.32,0 -0.48,0.147 -0.48,0.44 v 0.52 c 0,1.093 -0.32,1.967 -0.96,2.62 -0.64,0.653 -1.493,0.98 -2.56,0.98 -1.067,0 -1.92,-0.327 -2.56,-0.98 -0.64,-0.653 -0.96,-1.527 -0.96,-2.62 V 36.16 c 0,-1.093 0.32,-1.973 0.96,-2.64 0.64,-0.667 1.493,-1 2.56,-1 1.067,0 1.92,0.333 2.56,1 0.64,0.667 0.96,1.547 0.96,2.64 v 0.52 c 0,0.293 0.16,0.44 0.48,0.44 l 4.68,-0.2 a 0.436,0.436 0 0 0 0.34,-0.16 0.533,0.533 0 0 0 0.14,-0.36 v -0.2 c 0,-1.707 -0.38,-3.2 -1.14,-4.48 -0.76,-1.28 -1.833,-2.273 -3.22,-2.98 -1.387,-0.707 -2.987,-1.06 -4.8,-1.06 -1.813,0 -3.413,0.36 -4.8,1.08 -1.387,0.72 -2.46,1.74 -3.22,3.06 -0.76,1.32 -1.14,2.847 -1.14,4.58 v 11.12 c 0,1.76 0.38,3.307 1.14,4.64 a 7.716,7.716 0 0 0 3.22,3.08 c 1.387,0.72 2.987,1.08 4.8,1.08 z M 104.32,56 a 0.463,0.463 0 0 0 0.34,-0.14 0.463,0.463 0 0 0 0.14,-0.34 v -8 c 0,-0.053 0.027,-0.133 0.08,-0.24 l 1.8,-2.6 c 0.053,-0.08 0.107,-0.12 0.16,-0.12 0.053,0 0.093,0.04 0.12,0.12 l 5.68,10.96 c 0.133,0.24 0.32,0.36 0.56,0.36 h 5.12 c 0.293,0 0.44,-0.107 0.44,-0.32 a 0.614,0.614 0 0 0 -0.08,-0.24 l -7.84,-15.12 a 0.498,0.498 0 0 1 0,-0.28 l 7.4,-11.48 c 0.107,-0.16 0.127,-0.293 0.06,-0.4 C 118.233,28.053 118.107,28 117.92,28 h -5.16 a 0.627,0.627 0 0 0 -0.56,0.32 l -7.16,10.88 c -0.027,0.08 -0.073,0.107 -0.14,0.08 -0.067,-0.027 -0.1,-0.08 -0.1,-0.16 V 28.48 A 0.463,0.463 0 0 0 104.66,28.14 0.463,0.463 0 0 0 104.32,28 h -4.68 a 0.463,0.463 0 0 0 -0.34,0.14 0.463,0.463 0 0 0 -0.14,0.34 v 27.04 c 0,0.133 0.047,0.247 0.14,0.34 0.093,0.093 0.207,0.14 0.34,0.14 z M 39.16,88 a 0.463,0.463 0 0 0 0.34,-0.14 0.463,0.463 0 0 0 0.14,-0.34 v -10.4 c 0,-0.133 0.067,-0.2 0.2,-0.2 h 4.32 c 1.6,0 3.02,-0.347 4.26,-1.04 a 7.197,7.197 0 0 0 2.88,-2.94 c 0.68,-1.267 1.02,-2.727 1.02,-4.38 0,-1.68 -0.34,-3.173 -1.02,-4.48 -0.68,-1.307 -1.64,-2.32 -2.88,-3.04 -1.24,-0.72 -2.66,-1.08 -4.26,-1.08 H 34.48 A 0.463,0.463 0 0 0 34.14,60.1 0.463,0.463 0 0 0 34,60.44 v 27.08 c 0,0.133 0.047,0.247 0.14,0.34 0.093,0.093 0.207,0.14 0.34,0.14 z m 4.08,-15.56 h -3.4 c -0.133,0 -0.2,-0.067 -0.2,-0.2 v -7.2 c 0,-0.133 0.067,-0.2 0.2,-0.2 h 3.4 c 1.04,0 1.873,0.347 2.5,1.04 0.627,0.693 0.94,1.627 0.94,2.8 0,1.147 -0.313,2.06 -0.94,2.74 -0.627,0.68 -1.46,1.02 -2.5,1.02 z M 59.36,88 c 0.267,0 0.44,-0.133 0.52,-0.4 l 0.92,-3.92 c 0.027,-0.107 0.093,-0.16 0.2,-0.16 h 7.48 c 0.107,0 0.173,0.053 0.2,0.16 l 0.92,3.92 c 0.08,0.267 0.267,0.4 0.56,0.4 h 4.88 c 0.293,0 0.44,-0.12 0.44,-0.36 L 75.44,87.48 68.24,60.4 C 68.16,60.133 67.973,60 67.68,60 h -5.8 c -0.293,0 -0.48,0.133 -0.56,0.4 l -7.2,27.08 c -0.08,0.347 0.053,0.52 0.4,0.52 z m 8,-8.84 H 62.08 A 0.266,0.266 0 0 1 61.92,79.1 C 61.867,79.06 61.853,79 61.88,78.92 l 2.68,-11.6 c 0.027,-0.107 0.067,-0.16 0.12,-0.16 0.053,0 0.093,0.053 0.12,0.16 l 2.76,11.6 c 0.027,0.08 0.013,0.14 -0.04,0.18 a 0.266,0.266 0 0 1 -0.16,0.06 z M 83.48,88 a 0.463,0.463 0 0 0 0.34,-0.14 0.463,0.463 0 0 0 0.14,-0.34 v -10.4 c 0,-0.133 0.067,-0.2 0.2,-0.2 h 4.32 c 1.6,0 3.02,-0.347 4.26,-1.04 a 7.197,7.197 0 0 0 2.88,-2.94 c 0.68,-1.267 1.02,-2.727 1.02,-4.38 0,-1.68 -0.34,-3.173 -1.02,-4.48 -0.68,-1.307 -1.64,-2.32 -2.88,-3.04 -1.24,-0.72 -2.66,-1.08 -4.26,-1.08 H 78.8 a 0.463,0.463 0 0 0 -0.34,0.14 0.463,0.463 0 0 0 -0.14,0.34 v 27.08 c 0,0.133 0.047,0.247 0.14,0.34 0.093,0.093 0.207,0.14 0.34,0.14 z m 4.08,-15.56 h -3.4 c -0.133,0 -0.2,-0.067 -0.2,-0.2 v -7.2 c 0,-0.133 0.067,-0.2 0.2,-0.2 h 3.4 c 1.04,0 1.873,0.347 2.5,1.04 0.627,0.693 0.94,1.627 0.94,2.8 0,1.147 -0.313,2.06 -0.94,2.74 -0.627,0.68 -1.46,1.02 -2.5,1.02 z M 116.24,88 a 0.463,0.463 0 0 0 0.34,-0.14 0.463,0.463 0 0 0 0.14,-0.34 v -3.88 a 0.463,0.463 0 0 0 -0.14,-0.34 0.463,0.463 0 0 0 -0.34,-0.14 h -10.72 c -0.133,0 -0.2,-0.067 -0.2,-0.2 v -6.44 c 0,-0.133 0.067,-0.2 0.2,-0.2 h 6.68 a 0.463,0.463 0 0 0 0.34,-0.14 0.463,0.463 0 0 0 0.14,-0.34 v -3.88 a 0.463,0.463 0 0 0 -0.14,-0.34 0.463,0.463 0 0 0 -0.34,-0.14 h -6.68 c -0.133,0 -0.2,-0.067 -0.2,-0.2 v -6.24 c 0,-0.133 0.067,-0.2 0.2,-0.2 h 10.72 a 0.463,0.463 0 0 0 0.34,-0.14 0.463,0.463 0 0 0 0.14,-0.34 V 60.48 A 0.463,0.463 0 0 0 116.58,60.14 0.463,0.463 0 0 0 116.24,60 h -16.08 a 0.463,0.463 0 0 0 -0.34,0.14 0.463,0.463 0 0 0 -0.14,0.34 v 27.04 c 0,0.133 0.047,0.247 0.14,0.34 0.093,0.093 0.207,0.14 0.34,0.14 z m 9.04,0 a 0.463,0.463 0 0 0 0.34,-0.14 0.463,0.463 0 0 0 0.14,-0.34 V 76.6 c 0,-0.133 0.067,-0.2 0.2,-0.2 h 2.52 c 0.08,0 0.147,0.053 0.2,0.16 l 4.04,11.04 c 0.08,0.267 0.267,0.4 0.56,0.4 h 4.88 c 0.293,0 0.44,-0.12 0.44,-0.36 a 0.445,0.445 0 0 0 -0.04,-0.2 L 134,75.96 c -0.053,-0.133 -0.013,-0.227 0.12,-0.28 1.36,-0.613 2.413,-1.547 3.16,-2.8 0.747,-1.253 1.12,-2.733 1.12,-4.44 0,-1.653 -0.333,-3.12 -1,-4.4 a 7.203,7.203 0 0 0 -2.84,-2.98 C 133.333,60.353 131.933,60 130.36,60 h -9.76 a 0.463,0.463 0 0 0 -0.34,0.14 0.463,0.463 0 0 0 -0.14,0.34 v 27.04 c 0,0.133 0.047,0.247 0.14,0.34 0.093,0.093 0.207,0.14 0.34,0.14 z m 4.16,-15.92 h -3.48 c -0.133,0 -0.2,-0.067 -0.2,-0.2 v -6.84 c 0,-0.133 0.067,-0.2 0.2,-0.2 h 3.48 c 0.987,0 1.787,0.327 2.4,0.98 0.613,0.653 0.92,1.54 0.92,2.66 0,1.093 -0.307,1.967 -0.92,2.62 -0.613,0.653 -1.413,0.98 -2.4,0.98 z m -86.92,48.24 c 2.72,0 4.9,-0.713 6.54,-2.14 1.64,-1.427 2.46,-3.353 2.46,-5.78 0,-1.36 -0.293,-2.52 -0.88,-3.48 a 8.124,8.124 0 0 0 -2.18,-2.38 c -0.867,-0.627 -2.073,-1.367 -3.62,-2.22 L 44,103.84 c -1.36,-0.667 -2.373,-1.207 -3.04,-1.62 -0.667,-0.413 -1.16,-0.847 -1.48,-1.3 -0.32,-0.453 -0.48,-0.987 -0.48,-1.6 0,-0.88 0.273,-1.567 0.82,-2.06 0.547,-0.493 1.3,-0.74 2.26,-0.74 1.147,0 2.053,0.32 2.72,0.96 0.667,0.64 1,1.44 1,2.4 v 0.72 c 0,0.133 0.047,0.247 0.14,0.34 0.093,0.093 0.207,0.14 0.34,0.14 h 4.6 a 0.463,0.463 0 0 0 0.34,-0.14 0.463,0.463 0 0 0 0.14,-0.34 v -0.8 c 0,-1.6 -0.387,-3.013 -1.16,-4.24 -0.773,-1.227 -1.853,-2.18 -3.24,-2.86 -1.387,-0.68 -2.973,-1.02 -4.76,-1.02 -1.707,0 -3.227,0.313 -4.56,0.94 -1.333,0.627 -2.367,1.52 -3.1,2.68 -0.733,1.16 -1.1,2.513 -1.1,4.06 0,1.547 0.36,2.867 1.08,3.96 0.72,1.093 1.587,1.987 2.6,2.68 1.013,0.693 2.32,1.44 3.92,2.24 1.307,0.667 2.273,1.193 2.9,1.58 0.627,0.387 1.113,0.8 1.46,1.24 0.347,0.44 0.52,0.967 0.52,1.58 0,0.827 -0.273,1.507 -0.82,2.04 -0.547,0.533 -1.34,0.8 -2.38,0.8 -1.173,0 -2.107,-0.313 -2.8,-0.94 -0.693,-0.627 -1.04,-1.407 -1.04,-2.34 v -0.76 a 0.463,0.463 0 0 0 -0.14,-0.34 0.463,0.463 0 0 0 -0.34,-0.14 h -4.6 a 0.463,0.463 0 0 0 -0.34,0.14 0.463,0.463 0 0 0 -0.14,0.34 v 1.04 c 0,1.547 0.38,2.913 1.14,4.1 0.76,1.187 1.833,2.107 3.22,2.76 1.387,0.653 3,0.98 4.84,0.98 z m 21.08,0 c 1.813,0 3.413,-0.353 4.8,-1.06 1.387,-0.707 2.46,-1.713 3.22,-3.02 0.76,-1.307 1.14,-2.813 1.14,-4.52 v -0.12 a 0.463,0.463 0 0 0 -0.14,-0.34 0.463,0.463 0 0 0 -0.34,-0.14 l -4.68,-0.2 c -0.32,0 -0.48,0.147 -0.48,0.44 v 0.52 c 0,1.093 -0.32,1.967 -0.96,2.62 -0.64,0.653 -1.493,0.98 -2.56,0.98 -1.067,0 -1.92,-0.327 -2.56,-0.98 -0.64,-0.653 -0.96,-1.527 -0.96,-2.62 v -11.72 c 0,-1.093 0.32,-1.973 0.96,-2.64 0.64,-0.667 1.493,-1 2.56,-1 1.067,0 1.92,0.333 2.56,1 0.64,0.667 0.96,1.547 0.96,2.64 v 0.52 c 0,0.293 0.16,0.44 0.48,0.44 l 4.68,-0.2 a 0.436,0.436 0 0 0 0.34,-0.16 0.533,0.533 0 0 0 0.14,-0.36 v -0.2 c 0,-1.707 -0.38,-3.2 -1.14,-4.48 -0.76,-1.28 -1.833,-2.273 -3.22,-2.98 -1.387,-0.707 -2.987,-1.06 -4.8,-1.06 -1.813,0 -3.413,0.36 -4.8,1.08 -1.387,0.72 -2.46,1.74 -3.22,3.06 -0.76,1.32 -1.14,2.847 -1.14,4.58 v 11.12 c 0,1.76 0.38,3.307 1.14,4.64 a 7.716,7.716 0 0 0 3.22,3.08 c 1.387,0.72 2.987,1.08 4.8,1.08 z M 81.52,120 a 0.463,0.463 0 0 0 0.34,-0.14 0.463,0.463 0 0 0 0.14,-0.34 V 92.48 A 0.463,0.463 0 0 0 81.86,92.14 0.463,0.463 0 0 0 81.52,92 h -4.68 a 0.463,0.463 0 0 0 -0.34,0.14 0.463,0.463 0 0 0 -0.14,0.34 v 27.04 c 0,0.133 0.047,0.247 0.14,0.34 0.093,0.093 0.207,0.14 0.34,0.14 z m 13.08,0.32 c 2.72,0 4.9,-0.713 6.54,-2.14 1.64,-1.427 2.46,-3.353 2.46,-5.78 0,-1.36 -0.293,-2.52 -0.88,-3.48 a 8.124,8.124 0 0 0 -2.18,-2.38 c -0.867,-0.627 -2.073,-1.367 -3.62,-2.22 l -0.84,-0.48 c -1.36,-0.667 -2.373,-1.207 -3.04,-1.62 -0.667,-0.413 -1.16,-0.847 -1.48,-1.3 -0.32,-0.453 -0.48,-0.987 -0.48,-1.6 0,-0.88 0.273,-1.567 0.82,-2.06 0.547,-0.493 1.3,-0.74 2.26,-0.74 1.147,0 2.053,0.32 2.72,0.96 0.667,0.64 1,1.44 1,2.4 v 0.72 c 0,0.133 0.047,0.247 0.14,0.34 0.093,0.093 0.207,0.14 0.34,0.14 h 4.6 a 0.463,0.463 0 0 0 0.34,-0.14 0.463,0.463 0 0 0 0.14,-0.34 v -0.8 c 0,-1.6 -0.387,-3.013 -1.16,-4.24 -0.773,-1.227 -1.853,-2.18 -3.24,-2.86 -1.387,-0.68 -2.973,-1.02 -4.76,-1.02 -1.707,0 -3.227,0.313 -4.56,0.94 -1.333,0.627 -2.367,1.52 -3.1,2.68 -0.733,1.16 -1.1,2.513 -1.1,4.06 0,1.547 0.36,2.867 1.08,3.96 0.72,1.093 1.587,1.987 2.6,2.68 1.013,0.693 2.32,1.44 3.92,2.24 1.307,0.667 2.273,1.193 2.9,1.58 0.627,0.387 1.113,0.8 1.46,1.24 0.347,0.44 0.52,0.967 0.52,1.58 0,0.827 -0.273,1.507 -0.82,2.04 -0.547,0.533 -1.34,0.8 -2.38,0.8 -1.173,0 -2.107,-0.313 -2.8,-0.94 -0.693,-0.627 -1.04,-1.407 -1.04,-2.34 v -0.76 a 0.463,0.463 0 0 0 -0.14,-0.34 0.463,0.463 0 0 0 -0.34,-0.14 h -4.6 a 0.463,0.463 0 0 0 -0.34,0.14 0.463,0.463 0 0 0 -0.14,0.34 v 1.04 c 0,1.547 0.38,2.913 1.14,4.1 0.76,1.187 1.833,2.107 3.22,2.76 1.387,0.653 3,0.98 4.84,0.98 z m 20.8,0 c 2.72,0 4.9,-0.713 6.54,-2.14 1.64,-1.427 2.46,-3.353 2.46,-5.78 0,-1.36 -0.293,-2.52 -0.88,-3.48 a 8.124,8.124 0 0 0 -2.18,-2.38 c -0.867,-0.627 -2.073,-1.367 -3.62,-2.22 l -0.84,-0.48 c -1.36,-0.667 -2.373,-1.207 -3.04,-1.62 -0.667,-0.413 -1.16,-0.847 -1.48,-1.3 -0.32,-0.453 -0.48,-0.987 -0.48,-1.6 0,-0.88 0.273,-1.567 0.82,-2.06 0.547,-0.493 1.3,-0.74 2.26,-0.74 1.147,0 2.053,0.32 2.72,0.96 0.667,0.64 1,1.44 1,2.4 v 0.72 c 0,0.133 0.047,0.247 0.14,0.34 0.093,0.093 0.207,0.14 0.34,0.14 h 4.6 a 0.463,0.463 0 0 0 0.34,-0.14 0.463,0.463 0 0 0 0.14,-0.34 v -0.8 c 0,-1.6 -0.387,-3.013 -1.16,-4.24 -0.773,-1.227 -1.853,-2.18 -3.24,-2.86 -1.387,-0.68 -2.973,-1.02 -4.76,-1.02 -1.707,0 -3.227,0.313 -4.56,0.94 -1.333,0.627 -2.367,1.52 -3.1,2.68 -0.733,1.16 -1.1,2.513 -1.1,4.06 0,1.547 0.36,2.867 1.08,3.96 0.72,1.093 1.587,1.987 2.6,2.68 1.013,0.693 2.32,1.44 3.92,2.24 1.307,0.667 2.273,1.193 2.9,1.58 0.627,0.387 1.113,0.8 1.46,1.24 0.347,0.44 0.52,0.967 0.52,1.58 0,0.827 -0.273,1.507 -0.82,2.04 -0.547,0.533 -1.34,0.8 -2.38,0.8 -1.173,0 -2.107,-0.313 -2.8,-0.94 -0.693,-0.627 -1.04,-1.407 -1.04,-2.34 v -0.76 a 0.463,0.463 0 0 0 -0.14,-0.34 0.463,0.463 0 0 0 -0.34,-0.14 h -4.6 a 0.463,0.463 0 0 0 -0.34,0.14 0.463,0.463 0 0 0 -0.14,0.34 v 1.04 c 0,1.547 0.38,2.913 1.14,4.1 0.76,1.187 1.833,2.107 3.22,2.76 1.387,0.653 3,0.98 4.84,0.98 z m 21.2,0.04 c 1.84,0 3.467,-0.373 4.88,-1.12 1.413,-0.747 2.507,-1.8 3.28,-3.16 0.773,-1.36 1.16,-2.947 1.16,-4.76 v -10.64 c 0,-1.787 -0.387,-3.36 -1.16,-4.72 -0.773,-1.36 -1.867,-2.413 -3.28,-3.16 -1.413,-0.747 -3.04,-1.12 -4.88,-1.12 -1.84,0 -3.46,0.373 -4.86,1.12 a 8.003,8.003 0 0 0 -3.26,3.16 c -0.773,1.36 -1.16,2.933 -1.16,4.72 v 10.64 c 0,1.813 0.387,3.4 1.16,4.76 a 8.003,8.003 0 0 0 3.26,3.16 c 1.4,0.747 3.02,1.12 4.86,1.12 z m 0,-4.84 c -1.093,0 -1.973,-0.367 -2.64,-1.1 -0.667,-0.733 -1,-1.687 -1,-2.86 v -11.04 c 0,-1.2 0.333,-2.167 1,-2.9 0.667,-0.733 1.547,-1.1 2.64,-1.1 1.12,0 2.013,0.367 2.68,1.1 0.667,0.733 1,1.7 1,2.9 v 11.04 c 0,1.173 -0.333,2.127 -1,2.86 -0.667,0.733 -1.56,1.1 -2.68,1.1 z m 18.24,4.48 a 0.463,0.463 0 0 0 0.34,-0.14 0.463,0.463 0 0 0 0.14,-0.34 V 108.6 c 0,-0.133 0.067,-0.2 0.2,-0.2 h 2.52 c 0.08,0 0.147,0.053 0.2,0.16 l 4.04,11.04 c 0.08,0.267 0.267,0.4 0.56,0.4 h 4.88 c 0.293,0 0.44,-0.12 0.44,-0.36 a 0.445,0.445 0 0 0 -0.04,-0.2 l -4.56,-11.48 c -0.053,-0.133 -0.013,-0.227 0.12,-0.28 1.36,-0.613 2.413,-1.547 3.16,-2.8 0.747,-1.253 1.12,-2.733 1.12,-4.44 0,-1.653 -0.333,-3.12 -1,-4.4 a 7.203,7.203 0 0 0 -2.84,-2.98 C 162.893,92.353 161.493,92 159.92,92 h -9.76 a 0.463,0.463 0 0 0 -0.34,0.14 0.463,0.463 0 0 0 -0.14,0.34 v 27.04 c 0,0.133 0.047,0.247 0.14,0.34 0.093,0.093 0.207,0.14 0.34,0.14 z M 159,104.08 h -3.48 c -0.133,0 -0.2,-0.067 -0.2,-0.2 v -6.84 c 0,-0.133 0.067,-0.2 0.2,-0.2 H 159 c 0.987,0 1.787,0.327 2.4,0.98 0.613,0.653 0.92,1.54 0.92,2.66 0,1.093 -0.307,1.967 -0.92,2.62 -0.613,0.653 -1.413,0.98 -2.4,0.98 z m 20.8,16.24 c 2.72,0 4.9,-0.713 6.54,-2.14 1.64,-1.427 2.46,-3.353 2.46,-5.78 0,-1.36 -0.293,-2.52 -0.88,-3.48 a 8.124,8.124 0 0 0 -2.18,-2.38 c -0.867,-0.627 -2.073,-1.367 -3.62,-2.22 l -0.84,-0.48 c -1.36,-0.667 -2.373,-1.207 -3.04,-1.62 -0.667,-0.413 -1.16,-0.847 -1.48,-1.3 -0.32,-0.453 -0.48,-0.987 -0.48,-1.6 0,-0.88 0.273,-1.567 0.82,-2.06 0.547,-0.493 1.3,-0.74 2.26,-0.74 1.147,0 2.053,0.32 2.72,0.96 0.667,0.64 1,1.44 1,2.4 v 0.72 c 0,0.133 0.047,0.247 0.14,0.34 0.093,0.093 0.207,0.14 0.34,0.14 h 4.6 a 0.463,0.463 0 0 0 0.34,-0.14 0.463,0.463 0 0 0 0.14,-0.34 v -0.8 c 0,-1.6 -0.387,-3.013 -1.16,-4.24 -0.773,-1.227 -1.853,-2.18 -3.24,-2.86 -1.387,-0.68 -2.973,-1.02 -4.76,-1.02 -1.707,0 -3.227,0.313 -4.56,0.94 -1.333,0.627 -2.367,1.52 -3.1,2.68 -0.733,1.16 -1.1,2.513 -1.1,4.06 0,1.547 0.36,2.867 1.08,3.96 0.72,1.093 1.587,1.987 2.6,2.68 1.013,0.693 2.32,1.44 3.92,2.24 1.307,0.667 2.273,1.193 2.9,1.58 0.627,0.387 1.113,0.8 1.46,1.24 0.347,0.44 0.52,0.967 0.52,1.58 0,0.827 -0.273,1.507 -0.82,2.04 -0.547,0.533 -1.34,0.8 -2.38,0.8 -1.173,0 -2.107,-0.313 -2.8,-0.94 -0.693,-0.627 -1.04,-1.407 -1.04,-2.34 v -0.76 a 0.463,0.463 0 0 0 -0.14,-0.34 0.463,0.463 0 0 0 -0.34,-0.14 h -4.6 a 0.463,0.463 0 0 0 -0.34,0.14 0.463,0.463 0 0 0 -0.14,0.34 v 1.04 c 0,1.547 0.38,2.913 1.14,4.1 0.76,1.187 1.833,2.107 3.22,2.76 1.387,0.653 3,0.98 4.84,0.98 z" />
    <filter
       id="b-7"
       width="1.4506051"
       height="1.6383572"
       x="-0.22530257"
       y="-0.22530252"
       filterUnits="objectBoundingBox">
      <feOffset
         dy="3"
         in="SourceAlpha"
         result="shadowOffsetOuter1"
         id="feOffset1-6" />
      <feGaussianBlur
         in="shadowOffsetOuter1"
         result="shadowBlurOuter1"
         stdDeviation="1.5"
         id="feGaussianBlur1-3" />
      <feColorMatrix
         in="shadowBlurOuter1"
         values="0 0 0 0 0 0 0 0 0 0 0 0 0 0 0 0 0 0 0.196705638 0"
         id="feColorMatrix1-1" />
    </filter>
    <filter
       id="filter2"
       width="1.4506052"
       height="1.6383572"
       x="-0.22530258"
       y="-0.22530252"
       filterUnits="objectBoundingBox">
      <feOffset
         dy="3"
         in="SourceAlpha"
         result="shadowOffsetOuter1"
         id="feOffset2" />
      <feGaussianBlur
         in="shadowOffsetOuter1"
         result="shadowBlurOuter1"
         stdDeviation="1.5"
         id="feGaussianBlur2" />
      <feColorMatrix
         in="shadowBlurOuter1"
         values="0 0 0 0 0 0 0 0 0 0 0 0 0 0 0 0 0 0 0.196705638 0"
         id="feColorMatrix2" />
    </filter>
  </defs>
  <g
     fill="none"
     transform="translate(-30,-27)"
     id="g2">
    <use
       fill="#000000"
       filter="url(#a)"
       xlink:href="#b"
       id="use1" />
    <use
       fill="#ffffff"
       xlink:href="#b"
       id="use2" />
  </g>
  <path
     id="use2-5"
     d="m 92.361328,23.037109 a 1.5995697,1.5995699 0 0 0 -1.599609,1.599609 v 4.791016 h -4.789063 a 1.5995697,1.5995699 0 0 0 -1.599609,1.59961 1.5995697,1.5995699 0 0 0 1.599609,1.599609 h 4.789063 v 4.789063 a 1.5995697,1.5995699 0 0 0 1.599609,1.599609 1.5995697,1.5995699 0 0 0 1.599609,-1.599609 v -4.789063 h 4.791017 a 1.5995697,1.5995699 0 0 0 1.599606,-1.599609 1.5995697,1.5995699 0 0 0 -1.599606,-1.59961 h -4.791017 v -4.791016 a 1.5995697,1.5995699 0 0 0 -1.599609,-1.599609 z"
     style="fill:#ffffff;filter:url(#b-7)"
     transform="matrix(0.54564706,0,0,0.54564706,51.561749,-1.927329)" />
  <path
     d="m 123.42656,19.725996 c 0.0895,0.0016 0.1756,-0.03387 0.238,-0.098 0.0641,-0.0624 0.0996,-0.148538 0.098,-0.238 v -2.716 c 0.002,-0.08946 -0.0339,-0.175602 -0.098,-0.238 -0.0624,-0.06413 -0.14854,-0.0996 -0.238,-0.098 h -7.504 c -0.093,0 -0.14,-0.047 -0.14,-0.14 V 0.4619998 c 0.002,-0.08946 -0.0339,-0.175602 -0.098,-0.238 -0.0624,-0.06413 -0.14854,-0.0996 -0.238,-0.098 h -3.276 c -0.0895,-0.0016 -0.1756,0.03387 -0.238,0.098 -0.0641,0.0624 -0.0996,0.148538 -0.098,0.238 V 19.389996 c 0,0.093 0.033,0.173 0.098,0.238 0.0624,0.06413 0.14854,0.0996 0.238,0.098 z m 5.992,0 c 0.0895,0.0016 0.1756,-0.03387 0.238,-0.098 0.0641,-0.0624 0.0996,-0.148538 0.098,-0.238 V 0.4619998 c 0.002,-0.08946 -0.0339,-0.175602 -0.098,-0.238 -0.0624,-0.06413 -0.14854,-0.0996 -0.238,-0.098 h -3.276 c -0.0895,-0.0016 -0.1756,0.03387 -0.238,0.098 -0.0641,0.0624 -0.0996,0.148538 -0.098,0.238 V 19.389996 c 0,0.093 0.033,0.173 0.098,0.238 0.0624,0.06413 0.14854,0.0996 0.238,0.098 z m 14.16799,0 c 0.0895,0.0016 0.1756,-0.03387 0.238,-0.098 0.0641,-0.0624 0.0996,-0.148538 0.098,-0.238 v -2.716 c 0.002,-0.08946 -0.0339,-0.175602 -0.098,-0.238 -0.0624,-0.06413 -0.14854,-0.0996 -0.238,-0.098 h -7.19599 c -0.112,0 -0.14,-0.056 -0.084,-0.168 l 7.50399,-12.3479952 c 0.0738,-0.12762 0.1125,-0.272555 0.112,-0.42 v -2.940001 c 0.002,-0.08946 -0.0339,-0.175602 -0.098,-0.238 -0.0624,-0.06413 -0.14854,-0.0996 -0.238,-0.098 h -11.31199 c -0.0895,-0.0016 -0.1756,0.03387 -0.238,0.098 -0.0641,0.0624 -0.0996,0.148538 -0.098,0.238 v 2.716001 c 0,0.093 0.033,0.173 0.098,0.238 0.0624,0.06413 0.14854,0.0996 0.238,0.098 h 7.19599 c 0.112,0 0.14,0.056 0.084,0.168 l -7.50399,12.3479952 c -0.0738,0.12762 -0.1125,0.272555 -0.112,0.42 v 2.94 c 0,0.093 0.033,0.173 0.098,0.238 0.0624,0.06413 0.14854,0.0996 0.238,0.098 z m 5.488,0 c 0.187,0 0.308,-0.093 0.364,-0.28 l 0.644,-2.744 c 0.019,-0.075 0.065,-0.112 0.14,-0.112 h 5.236 c 0.075,0 0.121,0.037 0.14,0.112 l 0.644,2.744 c 0.056,0.187 0.187,0.28 0.392,0.28 h 3.416 c 0.205,0 0.308,-0.084 0.308,-0.252 l -0.028,-0.112 -5.04,-18.9559962 c -0.056,-0.187 -0.187,-0.28 -0.392,-0.28 h -4.06 c -0.205,0 -0.336,0.093 -0.392,0.28 l -5.04,18.9559962 c -0.056,0.243 0.037,0.364 0.28,0.364 z m 5.6,-6.188 h -3.696 c -0.0409,-0.0013 -0.0803,-0.01605 -0.112,-0.042 -0.037,-0.028 -0.047,-0.07 -0.028,-0.126 l 1.876,-8.1199942 c 0.019,-0.075 0.047,-0.112 0.084,-0.112 0.037,0 0.065,0.037 0.084,0.112 l 1.932,8.1199942 c 0.019,0.056 0.01,0.098 -0.028,0.126 -0.0317,0.02595 -0.0711,0.04071 -0.112,0.042 z m 11.368,6.188 c 0.0895,0.0016 0.1756,-0.03387 0.238,-0.098 0.0641,-0.0624 0.0996,-0.148538 0.098,-0.238 v -7.644 c 0,-0.093 0.047,-0.14 0.14,-0.14 h 1.764 c 0.056,0 0.103,0.037 0.14,0.112 l 2.828,7.728 c 0.056,0.187 0.187,0.28 0.392,0.28 h 3.416 c 0.205,0 0.308,-0.084 0.308,-0.252 0.002,-0.0482 -0.008,-0.09613 -0.028,-0.14 l -3.192,-8.036 c -0.037,-0.093 -0.01,-0.159 0.084,-0.196 0.92468,-0.405124 1.69852,-1.090806 2.212,-1.9599962 0.523,-0.877 0.784,-1.913 0.784,-3.107999 0,-1.157 -0.233,-2.184 -0.7,-3.08 -0.44563,-0.873923 -1.13652,-1.598868 -1.988,-2.086001 -0.859,-0.495 -1.839,-0.742 -2.94,-0.742 h -6.832 c -0.0895,-0.0016 -0.1756,0.03387 -0.238,0.098 -0.0641,0.0624 -0.0996,0.148538 -0.098,0.238 V 19.389996 c 0,0.093 0.033,0.173 0.098,0.238 0.0624,0.06413 0.14854,0.0996 0.238,0.098 z m 2.912,-11.1439962 h -2.436 c -0.093,0 -0.14,-0.047 -0.14,-0.14 v -4.787999 c 0,-0.093 0.047,-0.14 0.14,-0.14 h 2.436 c 0.69,0 1.25,0.229 1.68,0.686 0.43,0.457 0.644,1.078001 0.644,1.862 0,0.764999 -0.215,1.376999 -0.644,1.833999 -0.43,0.457 -0.99,0.686 -1.68,0.686 z m 15.036,11.1439962 c 1.25,0 2.357,-0.233 3.318,-0.7 0.961,-0.467 1.703,-1.13 2.226,-1.988 0.523,-0.859 0.784,-1.857 0.784,-2.996 V 5.8100008 c 0,-1.139 -0.261,-2.137 -0.784,-2.996 -0.523,-0.859001 -1.265,-1.521001 -2.226,-1.988001 -0.961,-0.467 -2.067,-0.7 -3.318,-0.7 h -6.02 c -0.0895,-0.0016 -0.1756,0.03387 -0.238,0.098 -0.0641,0.0624 -0.0996,0.148538 -0.098,0.238 V 19.389996 c 0,0.093 0.033,0.173 0.098,0.238 0.0624,0.06413 0.14854,0.0996 0.238,0.098 z m -2.268,-3.388 c -0.093,0 -0.14,-0.047 -0.14,-0.14 V 3.6540008 c 0,-0.093 0.047,-0.14 0.14,-0.14 h 2.296 c 0.71,0 1.279,0.247 1.708,0.742 0.43,0.495 0.644,1.162 0.644,2.002 v 7.3359952 c -0.019,0.821 -0.243,1.48 -0.672,1.974 -0.43,0.495 -0.99,0.742 -1.68,0.742 z M 117.71456,41.95 c 1.904,0 3.43,-0.5 4.578,-1.498 1.148,-0.999 1.722,-2.347 1.722,-4.046 0,-0.952 -0.205,-1.764 -0.616,-2.436 -0.39213,-0.6518 -0.91103,-1.21831 -1.526,-1.666 -0.607,-0.439 -1.451,-0.957 -2.534,-1.554 l -0.588,-0.336 c -0.952,-0.467 -1.661,-0.845 -2.128,-1.134 -0.467,-0.29 -0.812,-0.593004 -1.036,-0.910004 -0.22745,-0.32849 -0.34507,-0.720554 -0.336,-1.12 0,-0.616 0.191,-1.097 0.574,-1.442 0.383,-0.345 0.91,-0.518 1.582,-0.518 0.803,0 1.437,0.224 1.904,0.672 0.467,0.448 0.7,1.008 0.7,1.68 v 0.504 c 0,0.093 0.033,0.173 0.098,0.238 0.0624,0.06413 0.14854,0.0996 0.238,0.098 h 3.22 c 0.0895,0.0016 0.1756,-0.03387 0.238,-0.098 0.0641,-0.0624 0.0996,-0.148538 0.098,-0.238 v -0.56 c 0,-1.12 -0.27,-2.11 -0.812,-2.968 -0.541,-0.859 -1.297,-1.526 -2.268,-2.002 -0.97,-0.476 -2.081,-0.714 -3.332,-0.714 -1.195,0 -2.259,0.22 -3.192,0.658 -0.933,0.439 -1.657,1.064 -2.17,1.876 -0.513,0.812 -0.77,1.76 -0.77,2.842 0,1.083 0.252,2.007004 0.756,2.772004 0.47791,0.73852 1.09629,1.37593 1.82,1.876 0.71,0.485 1.624,1.008 2.744,1.568 0.915,0.467 1.591,0.835 2.03,1.106 0.439,0.27 0.78,0.56 1.022,0.868 0.243,0.308 0.364,0.677 0.364,1.106 0,0.579 -0.191,1.055 -0.574,1.428 -0.383,0.373 -0.938,0.56 -1.666,0.56 -0.821,0 -1.475,-0.22 -1.96,-0.658 -0.47314,-0.41134 -0.73972,-1.01116 -0.728,-1.638 v -0.532 c 0.002,-0.0895 -0.0339,-0.1756 -0.098,-0.238 -0.0624,-0.0641 -0.14854,-0.0996 -0.238,-0.098 h -3.22 c -0.0895,-0.002 -0.1756,0.0339 -0.238,0.098 -0.0641,0.0624 -0.0996,0.14854 -0.098,0.238 v 0.728 c 0,1.083 0.266,2.04 0.798,2.87 0.532,0.83 1.283,1.475 2.254,1.932 0.97,0.457 2.1,0.686 3.388,0.686 z m 12.208,-0.224 c 0.0895,0.002 0.1756,-0.0339 0.238,-0.098 0.0641,-0.0624 0.0996,-0.14854 0.098,-0.238 v -7.28 c 0,-0.093 0.047,-0.14 0.14,-0.14 h 3.024 c 1.12,0 2.114,-0.243 2.982,-0.728 0.85799,-0.47514 1.55864,-1.19039 2.01599,-2.058 0.476,-0.887 0.714,-1.909 0.714,-3.066004 0,-1.176 -0.238,-2.221 -0.714,-3.136 -0.45205,-0.889374 -1.15233,-1.628562 -2.01599,-2.128 -0.868,-0.504 -1.862,-0.756 -2.982,-0.756 h -6.776 c -0.0895,-0.0016 -0.1756,0.03387 -0.238,0.098 -0.0641,0.0624 -0.0996,0.148538 -0.098,0.238 V 41.39 c 0,0.093 0.033,0.173 0.098,0.238 0.0624,0.0641 0.14854,0.0996 0.238,0.098 z m 2.856,-10.892 h -2.38 c -0.093,0 -0.14,-0.047 -0.14,-0.14 v -5.040004 c 0,-0.093 0.047,-0.14 0.14,-0.14 h 2.38 c 0.728,0 1.311,0.243 1.75,0.728 0.439,0.485 0.658,1.139 0.658,1.96 0,0.803004 -0.22,1.442004 -0.658,1.918004 -0.439,0.476 -1.022,0.714 -1.75,0.714 z m 14.64399,11.144 c 1.288,0 2.427,-0.261 3.416,-0.784 0.96417,-0.49835 1.76208,-1.26706 2.296,-2.212 0.541,-0.952 0.812,-2.063 0.812,-3.332 v -7.448004 c 0,-1.25 -0.27,-2.352 -0.812,-3.304 -0.53392,-0.944936 -1.33183,-1.713651 -2.296,-2.212 -0.99,-0.523 -2.128,-0.784 -3.416,-0.784 -1.288,0 -2.422,0.261 -3.402,0.784 -0.95825,0.501578 -1.75082,1.269832 -2.282,2.212 -0.541,0.952 -0.812,2.053 -0.812,3.304 V 35.65 c 0,1.27 0.27,2.38 0.812,3.332 0.53118,0.94217 1.32375,1.71042 2.282,2.212 0.98,0.523 2.114,0.784 3.402,0.784 z m 0,-3.388 c -0.765,0 -1.381,-0.257 -1.848,-0.77 -0.467,-0.513 -0.7,-1.18 -0.7,-2.002 v -7.728004 c 0,-0.84 0.233,-1.517 0.7,-2.03 0.467,-0.513 1.083,-0.77 1.848,-0.77 0.784,0 1.41,0.257 1.876,0.77 0.467,0.513 0.7,1.19 0.7,2.03 V 35.818 c 0,0.821 -0.233,1.489 -0.7,2.002 -0.467,0.513 -1.092,0.77 -1.876,0.77 z m 15.232,3.36 c 1.27,0 2.39,-0.247 3.36,-0.742 0.94251,-0.4682 1.7264,-1.20341 2.254,-2.114 0.532,-0.915 0.798,-1.97 0.798,-3.164 v -0.084 c 0.002,-0.0895 -0.0339,-0.1756 -0.098,-0.238 -0.0624,-0.0641 -0.14854,-0.0996 -0.238,-0.098 l -3.276,-0.14 c -0.224,0 -0.336,0.103 -0.336,0.308 v 0.364 c 0,0.765 -0.224,1.377 -0.672,1.834 -0.448,0.457 -1.045,0.686 -1.792,0.686 -0.747,0 -1.344,-0.229 -1.792,-0.686 -0.448,-0.457 -0.672,-1.069 -0.672,-1.834 v -8.204004 c 0,-0.765 0.224,-1.381 0.672,-1.848 0.448,-0.467 1.045,-0.7 1.792,-0.7 0.747,0 1.344,0.233 1.792,0.7 0.448,0.467 0.672,1.083 0.672,1.848 v 0.364 c 0,0.205 0.112,0.308 0.336,0.308 l 3.276,-0.14 c 0.0922,5.52e-4 0.17967,-0.04062 0.238,-0.112 0.063,-0.06879 0.098,-0.1587 0.098,-0.252 v -0.14 c 0,-1.195 -0.266,-2.24 -0.798,-3.136 -0.532,-0.896 -1.283,-1.591 -2.254,-2.086 -0.97,-0.495 -2.09,-0.742 -3.36,-0.742 -1.27,0 -2.39,0.252 -3.36,0.756 -0.94421,0.478819 -1.72772,1.223398 -2.254,2.142 -0.532,0.924 -0.798,1.993 -0.798,3.206 V 35.79 c 0,1.232 0.266,2.315 0.798,3.248 0.52295,0.9247 1.30698,1.67464 2.254,2.156 0.97,0.504 2.09,0.756 3.36,0.756 z m 12.544,-0.224 c 0.0895,0.002 0.1756,-0.0339 0.238,-0.098 0.0641,-0.0624 0.0996,-0.14854 0.098,-0.238 v -5.6 c 0.007,-0.0593 0.0259,-0.11649 0.056,-0.168 l 1.26,-1.82 c 0.037,-0.056 0.075,-0.084 0.112,-0.084 0.037,0 0.065,0.028 0.084,0.084 l 3.976,7.672 c 0.093,0.168 0.224,0.252 0.392,0.252 h 3.584 c 0.205,0 0.308,-0.075 0.308,-0.224 -0.007,-0.0593 -0.0259,-0.11649 -0.056,-0.168 l -5.488,-10.584 c -0.0188,-0.064 -0.0188,-0.13202 0,-0.196 l 5.18,-8.036004 c 0.075,-0.112 0.089,-0.205 0.042,-0.28 -0.047,-0.075 -0.135,-0.112 -0.266,-0.112 h -3.612 c -0.16199,-0.0034 -0.31268,0.08271 -0.392,0.224 l -5.012,7.616004 c -0.019,0.056 -0.051,0.075 -0.098,0.056 -0.047,-0.019 -0.07,-0.056 -0.07,-0.112 v -7.448004 c 0.002,-0.08946 -0.0339,-0.175602 -0.098,-0.238 -0.0624,-0.06413 -0.14854,-0.0996 -0.238,-0.098 h -3.276 c -0.0895,-0.0016 -0.1756,0.03387 -0.238,0.098 -0.0641,0.0624 -0.0996,0.148538 -0.098,0.238 V 41.39 c 0,0.093 0.033,0.173 0.098,0.238 0.0624,0.0641 0.14854,0.0996 0.238,0.098 z"
     id="use3"
     style="fill:#ffffff;filter:url(#b-7)"
     transform="matrix(0.81538675,0,0,0.81538675,26.050148,1.4800476)" />
  <path
     id="use_real2"
     d="m 101.95844,10.642803 a 0.87280052,0.87280062 0 0 0 -0.87285,0.872821 v 2.614204 h -2.61311 a 0.87280052,0.87280062 0 0 0 -0.872825,0.872822 0.87280052,0.87280062 0 0 0 0.872825,0.872822 h 2.61311 v 2.613138 a 0.87280052,0.87280062 0 0 0 0.87285,0.872822 0.87280052,0.87280062 0 0 0 0.87282,-0.872822 v -2.613138 h 2.61421 a 0.87280052,0.87280062 0 0 0 0.87282,-0.872822 0.87280052,0.87280062 0 0 0 -0.87282,-0.872822 h -2.61421 v -2.614204 a 0.87280052,0.87280062 0 0 0 -0.87282,-0.872821 z"
     style="fill:#ffffff;stroke-width:0.545648" />
  <path
     d="m 126.69053,17.564363 c 0.073,0.0013 0.14318,-0.0276 0.19407,-0.07991 0.0523,-0.05088 0.0811,-0.121114 0.0799,-0.194059 v -2.214591 c 0.002,-0.07295 -0.0275,-0.143185 -0.0799,-0.194063 -0.0509,-0.0523 -0.12112,-0.08121 -0.19407,-0.07991 h -6.11865 c -0.0758,0 -0.11423,-0.03833 -0.11423,-0.114143 V 1.8567555 c 0.001,-0.072949 -0.0277,-0.1431831 -0.0799,-0.1940616 -0.0509,-0.052294 -0.12111,-0.081216 -0.19406,-0.079907 h -2.6712 c -0.0731,-0.0013 -0.14319,0.027613 -0.19408,0.079907 -0.0522,0.050876 -0.0812,0.1211154 -0.0799,0.1940616 V 17.290394 c 0,0.07582 0.0269,0.14106 0.0799,0.194059 0.0509,0.0523 0.12112,0.08121 0.19408,0.0799 z m 4.8858,0 c 0.073,0.0013 0.14316,-0.0276 0.19405,-0.07991 0.0523,-0.05088 0.0812,-0.121114 0.0799,-0.194059 V 1.8567555 c 0.001,-0.072949 -0.0275,-0.1431831 -0.0799,-0.1940616 -0.0509,-0.052294 -0.12111,-0.081216 -0.19405,-0.079907 h -2.67119 c -0.073,-0.0013 -0.1432,0.027613 -0.19408,0.079907 -0.0523,0.050876 -0.0812,0.1211154 -0.0799,0.1940616 V 17.290394 c 0,0.07582 0.0269,0.14106 0.0799,0.194059 0.0509,0.0523 0.12113,0.08121 0.19408,0.0799 z m 11.55239,0 c 0.073,0.0013 0.14317,-0.0276 0.19405,-0.07991 0.0523,-0.05088 0.0812,-0.121114 0.0799,-0.194059 v -2.214591 c 0.002,-0.07295 -0.0275,-0.143185 -0.0799,-0.194063 -0.0509,-0.0523 -0.12112,-0.08121 -0.19405,-0.07991 h -5.86753 c -0.0913,0 -0.11422,-0.04567 -0.0684,-0.136985 L 143.3114,4.5964508 c 0.0602,-0.104056 0.0918,-0.2222373 0.0912,-0.3424623 v -2.397233 c 0.002,-0.072949 -0.0275,-0.1431831 -0.0799,-0.1940616 -0.0509,-0.052294 -0.12112,-0.081216 -0.19405,-0.079907 h -9.22364 c -0.073,-0.0013 -0.14319,0.027613 -0.19407,0.079907 -0.0523,0.050876 -0.0812,0.1211154 -0.0799,0.1940616 v 2.2145919 c 0,0.075828 0.0269,0.1410612 0.0799,0.1940617 0.0509,0.052294 0.12112,0.081217 0.19407,0.079906 h 5.86752 c 0.0913,0 0.11423,0.045661 0.0684,0.1369853 l -6.11866,10.0683926 c -0.0602,0.104068 -0.0918,0.222238 -0.0913,0.342463 v 2.397237 c 0,0.07582 0.0268,0.14106 0.0799,0.194059 0.0509,0.0523 0.12112,0.08121 0.19406,0.07991 z m 4.47485,0 c 0.15247,0 0.25112,-0.07582 0.2968,-0.228311 l 0.52509,-2.237418 c 0.0154,-0.06117 0.0531,-0.09131 0.11411,-0.09131 h 4.26936 c 0.0613,0 0.0986,0.03017 0.11423,0.09131 l 0.52512,2.237418 c 0.0458,0.15248 0.15248,0.228311 0.31963,0.228311 h 2.78537 c 0.16714,0 0.25112,-0.0685 0.25112,-0.205478 l -0.0228,-0.09131 -4.10955,-15.4564699 c -0.0458,-0.1524787 -0.15248,-0.2283095 -0.31964,-0.2283095 h -3.31046 c -0.16715,0 -0.27397,0.075828 -0.31962,0.2283084 l -4.10961,15.456459 c -0.0458,0.198137 0.0302,0.296799 0.22828,0.296799 z m 4.56613,-5.045614 h -3.01364 c -0.0334,-0.0011 -0.0656,-0.01309 -0.0913,-0.03425 -0.0302,-0.02283 -0.0383,-0.05707 -0.0228,-0.102737 l 1.52968,-6.6209358 c 0.0155,-0.061157 0.0382,-0.091324 0.0683,-0.091324 0.0302,0 0.0531,0.030167 0.0684,0.091324 l 1.57531,6.6209358 c 0.0155,0.04566 0.008,0.07991 -0.0229,0.102737 -0.0257,0.02115 -0.058,0.0332 -0.0913,0.03425 z m 9.26934,5.045614 c 0.073,0.0013 0.14317,-0.0276 0.19405,-0.07991 0.0523,-0.05088 0.0812,-0.121114 0.0799,-0.194059 v -6.232817 c 0,-0.07583 0.0382,-0.114154 0.11423,-0.114154 h 1.43832 c 0.0457,0 0.0839,0.03017 0.11423,0.09132 l 2.30583,6.301308 c 0.0458,0.152478 0.15249,0.228309 0.31964,0.228309 h 2.78536 c 0.16713,0 0.25114,-0.06848 0.25114,-0.205478 0.002,-0.03929 -0.006,-0.07839 -0.0228,-0.114144 l -2.60269,-6.552452 c -0.0302,-0.07583 -0.008,-0.129647 0.0683,-0.159816 0.75399,-0.330333 1.38498,-0.8894296 1.80365,-1.5981547 0.42645,-0.715094 0.63927,-1.5598352 0.63927,-2.5342214 0,-0.9434025 -0.18998,-1.7808044 -0.57077,-2.5113918 -0.36332,-0.7125849 -0.92666,-1.3036952 -1.62094,-1.7008965 -0.7004,-0.4036166 -1.49949,-0.6050175 -2.39724,-0.6050175 h -5.5707 c -0.0731,-0.0013 -0.1432,0.027613 -0.19409,0.079907 -0.0523,0.050876 -0.0812,0.1211153 -0.0799,0.1940616 V 17.290392 c 0,0.07582 0.0269,0.14106 0.0799,0.194059 0.0509,0.0523 0.12113,0.08121 0.19409,0.0799 z m 2.3744,-9.0866666 h -1.98628 c -0.0758,0 -0.11423,-0.038324 -0.11423,-0.114154 V 4.4594717 c 0,-0.075828 0.0382,-0.1141552 0.11423,-0.1141552 h 1.98628 c 0.56262,0 1.01925,0.1867236 1.36985,0.5593554 0.35062,0.372632 0.52511,0.8789881 0.52511,1.5182502 0,0.6237698 -0.17531,1.1227868 -0.52511,1.4954185 -0.3506,0.3726321 -0.80723,0.5593555 -1.36985,0.5593558 z m 12.26015,9.0866666 c 1.01923,0 1.92188,-0.189984 2.70545,-0.570771 0.78361,-0.380784 1.38861,-0.921386 1.81506,-1.62099 0.42645,-0.700416 0.63928,-1.514171 0.63928,-2.442897 V 6.2174455 c 0,-0.928726 -0.21283,-1.7424815 -0.63928,-2.4428993 -0.42645,-0.7004174 -1.03145,-1.2402035 -1.81506,-1.6209896 -0.78357,-0.380785 -1.68539,-0.5707706 -2.70545,-0.5707706 h -4.90861 c -0.0731,-0.0013 -0.14319,0.027613 -0.19408,0.079907 -0.0522,0.050876 -0.0812,0.1211154 -0.0799,0.1940616 V 17.290393 c 0,0.07582 0.0269,0.14106 0.0799,0.194059 0.0509,0.0523 0.12113,0.08121 0.19408,0.07991 z m -1.84929,-2.76253 c -0.0758,0 -0.11411,-0.03833 -0.11411,-0.114143 V 4.4594717 c 0,-0.075828 0.0382,-0.1141552 0.11411,-0.1141552 h 1.87212 c 0.57892,0 1.04289,0.2014011 1.39269,0.6050175 0.35062,0.4036165 0.52511,0.9474796 0.52511,1.6324039 v 5.9816731 c -0.0155,0.669432 -0.19813,1.206771 -0.54793,1.609576 -0.35062,0.403613 -0.80724,0.605015 -1.36987,0.605015 z m -52.19127,20.883689 c 1.5525,0 2.79679,-0.407693 3.73286,-1.221449 0.93605,-0.814571 1.40409,-1.913713 1.40409,-3.299057 0,-0.776247 -0.16715,-1.438341 -0.50227,-1.986281 -0.31974,-0.531471 -0.74285,-0.993393 -1.24428,-1.358433 -0.49495,-0.357955 -1.18312,-0.780327 -2.06621,-1.267112 l -0.47945,-0.27397 c -0.77625,-0.380785 -1.35434,-0.689001 -1.73513,-0.924648 -0.3808,-0.236462 -0.66209,-0.483528 -0.84474,-0.742005 -0.18547,-0.267846 -0.28138,-0.587531 -0.27396,-0.913235 0,-0.502277 0.15573,-0.89448 0.46802,-1.175785 0.31231,-0.28131 0.742,-0.422373 1.28995,-0.422373 0.65476,0 1.17172,0.182648 1.5525,0.547941 0.38077,0.365293 0.57076,0.821909 0.57076,1.36985 v 0.410955 c 0,0.07582 0.0269,0.141063 0.0799,0.194062 0.0509,0.0523 0.12111,0.08121 0.19406,0.0799 h 2.62554 c 0.073,0.0013 0.14319,-0.02761 0.19406,-0.0799 0.0523,-0.05088 0.0812,-0.121117 0.0799,-0.194062 v -0.456619 c 0,-0.913231 -0.22015,-1.720464 -0.66209,-2.420065 -0.44114,-0.700417 -1.05755,-1.244281 -1.84932,-1.632406 -0.79091,-0.388125 -1.69682,-0.582186 -2.71686,-0.582186 -0.97437,0 -1.84196,0.179387 -2.6027,0.536526 -0.76077,0.357955 -1.3511,0.867569 -1.76939,1.529665 -0.41831,0.662092 -0.62785,1.435079 -0.62785,2.317327 0,0.883066 0.20547,1.636487 0.61643,2.260257 0.38969,0.602181 0.8939,1.121915 1.484,1.529665 0.57892,0.395463 1.32417,0.82191 2.23742,1.278526 0.74607,0.380786 1.29728,0.680849 1.65522,0.901819 0.35798,0.220154 0.63604,0.456618 0.83333,0.707757 0.19815,0.251138 0.2968,0.552015 0.2968,0.901816 0,0.47211 -0.15574,0.860233 -0.46802,1.164372 -0.3123,0.304138 -0.76484,0.456617 -1.35845,0.456617 -0.66943,0 -1.20268,-0.179386 -1.59815,-0.536525 -0.38579,-0.335401 -0.60317,-0.824487 -0.59357,-1.335603 v -0.433786 c 10e-4,-0.07297 -0.0277,-0.143183 -0.0799,-0.194063 -0.0509,-0.05227 -0.12109,-0.08121 -0.19405,-0.07991 h -2.62555 c -0.073,-0.0017 -0.14319,0.02764 -0.19407,0.07991 -0.0523,0.05088 -0.0812,0.121118 -0.0799,0.194063 v 0.593601 c 0,0.883064 0.21689,1.66339 0.65068,2.34016 0.43378,0.676772 1.04613,1.202698 1.8379,1.575328 0.79091,0.372632 1.71229,0.559356 2.7625,0.559356 z m 9.95424,-0.182646 c 0.073,0.0017 0.14319,-0.02765 0.19406,-0.07991 0.0523,-0.05088 0.0812,-0.121118 0.08,-0.194062 V 29.29289 c 0,-0.07582 0.0383,-0.114144 0.11423,-0.114144 h 2.46572 c 0.91326,0 1.72374,-0.198139 2.43149,-0.593601 0.69959,-0.387424 1.2709,-0.970629 1.64382,-1.678066 0.38812,-0.723249 0.5822,-1.556574 0.5822,-2.499979 0,-0.958895 -0.19408,-1.810974 -0.5822,-2.557052 -0.36861,-0.725185 -0.93961,-1.327908 -1.64382,-1.735144 -0.70775,-0.410955 -1.51823,-0.616431 -2.43149,-0.616431 h -5.52503 c -0.0731,-0.0013 -0.14319,0.02762 -0.19408,0.0799 -0.0522,0.05088 -0.0812,0.121114 -0.0799,0.19406 v 15.456476 c 0,0.07582 0.0269,0.141062 0.0799,0.194063 0.0509,0.05225 0.12113,0.08121 0.19408,0.0799 z m 2.32875,-8.881194 h -1.94063 c -0.0758,0 -0.11411,-0.03831 -0.11411,-0.114143 v -4.109551 c 0,-0.07582 0.0383,-0.114155 0.11411,-0.114155 h 1.94063 c 0.59362,0 1.06898,0.198139 1.42694,0.593601 0.35794,0.395463 0.53649,0.928724 0.53649,1.59816 0,0.654756 -0.17937,1.175788 -0.53649,1.563912 -0.35796,0.388124 -0.83332,0.582188 -1.42694,0.582188 z m 11.94052,9.08667 c 1.05022,0 1.97893,-0.212815 2.78535,-0.639264 0.78619,-0.406348 1.43679,-1.033144 1.87214,-1.803635 0.44111,-0.776247 0.66209,-1.682142 0.66209,-2.716868 v -6.073002 c 0,-1.019235 -0.22014,-1.917792 -0.66209,-2.69404 -0.43535,-0.770488 -1.08595,-1.397289 -1.87214,-1.803637 -0.80721,-0.426445 -1.73513,-0.639262 -2.78535,-0.639262 -1.05022,0 -1.97486,0.212817 -2.77394,0.639262 -0.78134,0.408981 -1.4276,1.035407 -1.86072,1.803637 -0.44113,0.776248 -0.6621,1.673989 -0.6621,2.69404 v 6.073002 c 0,1.035541 0.22015,1.940621 0.6621,2.716868 0.43312,0.768233 1.07938,1.394654 1.86072,1.803635 0.79908,0.426449 1.72372,0.639264 2.77394,0.639264 z m 0,-2.762531 c -0.62377,0 -1.12604,-0.209554 -1.50684,-0.627847 -0.38078,-0.418295 -0.57077,-0.962158 -0.57077,-1.632405 v -6.30131 c 0,-0.684927 0.18999,-1.236943 0.57077,-1.655238 0.3808,-0.418292 0.88307,-0.627847 1.50684,-0.627847 0.63926,0 1.14968,0.209555 1.52966,0.627847 0.38077,0.418295 0.57077,0.970311 0.57077,1.655238 v 6.30131 c 0,0.669433 -0.19,1.21411 -0.57077,1.632405 -0.38079,0.418293 -0.8904,0.627847 -1.52966,0.627847 z m 12.41996,2.739701 c 1.03553,0 1.94877,-0.201403 2.73972,-0.605018 0.7685,-0.381763 1.40767,-0.981245 1.83788,-1.723726 0.43379,-0.746079 0.65066,-1.606314 0.65066,-2.579886 v -0.06849 c 0.002,-0.07298 -0.0277,-0.143183 -0.0799,-0.194062 -0.0509,-0.05227 -0.12111,-0.08121 -0.19405,-0.07991 l -2.6712,-0.114143 c -0.18266,0 -0.27398,0.08399 -0.27398,0.251138 v 0.2968 c 0,0.623771 -0.18265,1.122789 -0.54795,1.49542 -0.36529,0.372632 -0.85209,0.559356 -1.46118,0.559356 -0.60908,0 -1.09587,-0.186724 -1.46116,-0.559356 -0.36531,-0.372631 -0.54794,-0.871649 -0.54794,-1.49542 v -6.689442 c 0,-0.62377 0.18263,-1.126049 0.54794,-1.506835 0.36529,-0.380783 0.85208,-0.57077 1.46116,-0.57077 0.60909,0 1.09589,0.189987 1.46118,0.57077 0.3653,0.380786 0.54795,0.883065 0.54795,1.506835 v 0.296804 c 0,0.16715 0.0913,0.251138 0.27398,0.251138 l 2.6712,-0.114144 c 0.0752,4.51e-4 0.14649,-0.03312 0.19405,-0.09131 0.0514,-0.0561 0.0799,-0.129403 0.0799,-0.205477 v -0.114168 c 0,-0.974387 -0.21687,-1.826465 -0.65066,-2.557054 -0.43379,-0.730585 -1.04615,-1.297279 -1.83788,-1.700894 -0.79095,-0.40362 -1.70419,-0.605018 -2.73972,-0.605018 -1.03553,0 -1.94877,0.205478 -2.7397,0.616433 -0.76988,0.390423 -1.40875,0.997543 -1.83787,1.746558 -0.43379,0.753419 -0.65069,1.625066 -0.65069,2.614131 v 6.346973 c 0,1.004555 0.2169,1.887621 0.65069,2.648376 0.4264,0.753989 1.06567,1.365479 1.83787,1.757973 0.79093,0.410955 1.70417,0.616434 2.7397,0.616434 z m 10.22822,-0.182646 c 0.0731,0.0017 0.14317,-0.02765 0.19404,-0.07991 0.0523,-0.05088 0.0812,-0.121118 0.0799,-0.194062 V 30.66274 c 0.006,-0.04836 0.0211,-0.09499 0.0457,-0.136986 l 1.02737,-1.484005 c 0.0302,-0.04567 0.0613,-0.06849 0.0912,-0.06849 0.0302,0 0.0531,0.02282 0.0683,0.06849 l 3.24194,6.255648 c 0.0758,0.136985 0.18265,0.205479 0.31964,0.205479 h 2.92235 c 0.16716,0 0.25115,-0.06117 0.25115,-0.182648 -0.006,-0.04835 -0.0212,-0.09498 -0.0458,-0.136986 l -4.47483,-8.630052 c -0.0154,-0.05219 -0.0154,-0.107645 0,-0.159816 l 4.22368,-6.552452 c 0.0613,-0.09131 0.0726,-0.167153 0.0343,-0.228308 -0.0382,-0.06117 -0.11017,-0.09132 -0.2169,-0.09132 h -2.94518 c -0.13207,-0.0027 -0.25494,0.06745 -0.31962,0.182646 l -4.0867,6.209988 c -0.0155,0.04567 -0.0415,0.06116 -0.0799,0.04567 -0.0382,-0.0155 -0.0571,-0.04567 -0.0571,-0.09131 V 19.79528 c 0.001,-0.07295 -0.0277,-0.143184 -0.08,-0.194064 -0.0509,-0.0523 -0.12109,-0.08121 -0.19403,-0.0799 h -2.67121 c -0.0731,-0.0013 -0.14319,0.02762 -0.19407,0.0799 -0.0523,0.05088 -0.0812,0.121118 -0.0799,0.194064 v 15.433644 c 0,0.07582 0.0268,0.14106 0.0799,0.194061 0.0509,0.05226 0.12111,0.08121 0.19407,0.0799 z"
     id="use_real3"
     style="fill:#ffffff;stroke-width:0.815387" />
</svg>
